HIERARCHY
ROOT Hips
{
  OFFSET 0.0273292 -0.436096 0.279869
  CHANNELS 6 Xposition Yposition Zposition Zrotation Xrotation Yrotation
  JOINT LHipJoint
  {
    OFFSET 0 0 0
    CHANNELS 6 Xposition Yposition Zposition Zrotation Xrotation Yrotation
    JOINT LeftUpLeg
    {
      OFFSET 1.36306 -1.79463 0
      CHANNELS 6 Xposition Yposition Zposition Zrotation Xrotation Yrotation
      JOINT LeftLeg
      {
        OFFSET 2.44807 -6.72613 0.000295034
        CHANNELS 6 Xposition Yposition Zposition Zrotation Xrotation Yrotation
        JOINT LeftFoot
        {
          OFFSET 2.5622 -7.03959 3.59965e-05
          CHANNELS 6 Xposition Yposition Zposition Zrotation Xrotation Yrotation
          JOINT LeftToeBase
          {
            OFFSET 0.15764 -0.43311 2.32255
            CHANNELS 6 Xposition Yposition Zposition Zrotation Xrotation Yrotation
            End Site
            {
              OFFSET 0 0 0
            }
          }
        }
      }
    }
  }
  JOINT RHipJoint
  {
    OFFSET 0 0 0
    CHANNELS 6 Xposition Yposition Zposition Zrotation Xrotation Yrotation
    JOINT RightUpLeg
    {
      OFFSET -1.30552 -1.79463 0
      CHANNELS 6 Xposition Yposition Zposition Zrotation Xrotation Yrotation
      JOINT RightLeg
      {
        OFFSET -2.54234 -6.98562 -0.000396375
        CHANNELS 6 Xposition Yposition Zposition Zrotation Xrotation Yrotation
        JOINT RightFoot
        {
          OFFSET -2.56826 -7.05623 -4.47982e-05
          CHANNELS 6 Xposition Yposition Zposition Zrotation Xrotation Yrotation
          JOINT RightToeBase
          {
            OFFSET -0.16473 -0.45259 2.36315
            CHANNELS 6 Xposition Yposition Zposition Zrotation Xrotation Yrotation
            End Site
            {
              OFFSET 0 0 0
            }
          }
        }
      }
    }
  }
  JOINT LowerBack
  {
    OFFSET 0 0 0
    CHANNELS 6 Xposition Yposition Zposition Zrotation Xrotation Yrotation
    JOINT Spine
    {
      OFFSET 0.0282699 2.03559 0
      CHANNELS 6 Xposition Yposition Zposition Zrotation Xrotation Yrotation
      JOINT Spine1
      {
        OFFSET 0.05672 2.04885 -0.04275
        CHANNELS 6 Xposition Yposition Zposition Zrotation Xrotation Yrotation
        JOINT Neck
        {
          OFFSET 0 0 0
          CHANNELS 6 Xposition Yposition Zposition Zrotation Xrotation Yrotation
          JOINT Neck1
          {
            OFFSET -0.05417 1.74624 0.17202
            CHANNELS 6 Xposition Yposition Zposition Zrotation Xrotation Yrotation
            JOINT Head
            {
              OFFSET 0.10407 1.76136 -0.12397
              CHANNELS 6 Xposition Yposition Zposition Zrotation Xrotation Yrotation
              End Site
              {
                OFFSET 0 0 0
              }
            }
          }
        }
        JOINT LeftShoulder
        {
          OFFSET 0 0 0
          CHANNELS 6 Xposition Yposition Zposition Zrotation Xrotation Yrotation
          JOINT LeftArm
          {
            OFFSET 3.36241 1.20089 -0.311211
            CHANNELS 6 Xposition Yposition Zposition Zrotation Xrotation Yrotation
            JOINT LeftForeArm
            {
              OFFSET 4.983 0.000197398 0.000166057
              CHANNELS 6 Xposition Yposition Zposition Zrotation Xrotation Yrotation
              JOINT LeftHand
              {
                OFFSET 3.48356 0 1.87849e-05
                CHANNELS 6 Xposition Yposition Zposition Zrotation Xrotation Yrotation
                JOINT LeftFingerBase
                {
                  OFFSET 0 0 0
                  CHANNELS 6 Xposition Yposition Zposition Zrotation Xrotation Yrotation
                  JOINT LeftHandIndex1
                  {
                    OFFSET 0.71526 0 0
                    CHANNELS 6 Xposition Yposition Zposition Zrotation Xrotation Yrotation
                    End Site
                    {
                      OFFSET 0 0 0
                    }
                  }
                }
                JOINT LThumb
                {
                  OFFSET 0 0 0
                  CHANNELS 6 Xposition Yposition Zposition Zrotation Xrotation Yrotation
                  End Site
                  {
                    OFFSET 0 0 0
                  }
                }
              }
            }
          }
        }
        JOINT RightShoulder
        {
          OFFSET 0 0 0
          CHANNELS 6 Xposition Yposition Zposition Zrotation Xrotation Yrotation
          JOINT RightArm
          {
            OFFSET -3.1366 1.37405 -0.404651
            CHANNELS 6 Xposition Yposition Zposition Zrotation Xrotation Yrotation
            JOINT RightForeArm
            {
              OFFSET -5.2419 -5.8808e-05 -0.000165864
              CHANNELS 6 Xposition Yposition Zposition Zrotation Xrotation Yrotation
              JOINT RightHand
              {
                OFFSET -3.44417 0 -2.00002e-05
                CHANNELS 6 Xposition Yposition Zposition Zrotation Xrotation Yrotation
                JOINT RightFingerBase
                {
                  OFFSET 0 0 0
                  CHANNELS 6 Xposition Yposition Zposition Zrotation Xrotation Yrotation
                  JOINT RightHandIndex1
                  {
                    OFFSET -0.62253 0 0
                    CHANNELS 6 Xposition Yposition Zposition Zrotation Xrotation Yrotation
                    End Site
                    {
                      OFFSET 0 0 0
                    }
                  }
                }
                JOINT RThumb
                {
                  OFFSET 0 0 0
                  CHANNELS 6 Xposition Yposition Zposition Zrotation Xrotation Yrotation
                  End Site
                  {
                    OFFSET 0 0 0
                  }
                }
              }
            }
          }
        }
      }
    }
  }
}
MOTION
Frames:	4
Frame Time:	0.00833333
0.188647 2.06857 -0.1372 -5.12378 -1.76823 -8.69868 0 0 0 -1.19271e-15 1.98785e-16 -0 1.36306 -1.79463 9.54359e-08 -2.83774 -54.4246 11.7529 2.44798 -6.72617 2.86942e-05 -54.3984 74.0183 73.0793 2.56218 -7.0396 3.68637e-05 -6.18546 32.531 4.01946 0.15764 -0.43311 2.32255 -3.18055e-15 -3.18055e-15 -1.59028e-15 0 0 0 -1.19271e-15 1.98785e-16 -0 -1.30552 -1.79463 5.67482e-08 33.3243 -54.7617 19.1893 -2.54255 -6.98554 1.22482e-06 135.909 54.818 -161.298 -2.5682 -7.05625 4.20108e-06 10.4676 19.2983 -9.39002 -0.16473 -0.45259 2.36315 1.27222e-14 3.97569e-16 3.97569e-16 0 0 0 -1.19271e-15 1.98785e-16 -0 0.0282698 2.03559 7.33983e-08 -0.739104 30.3645 11.2542 0.05672 2.04885 -0.04275 -0 0 1.98785e-16 0 0 0 -1.98785e-16 3.18055e-15 -0 -0.05417 1.74625 0.17202 0.345233 14.896 5.73293 0.10407 1.76136 -0.12397 -3.97569e-16 0 -0 0 0 0 -1.98785e-16 3.18055e-15 -0 3.36242 1.2009 -0.311211 1.55697 -3.85792 -27.4073 4.98299 -0.000186552 0.000150213 8.29838 -4.32145 -23.0555 3.48356 -5.5688e-05 -2.19011e-05 6.75748 23.4563 -6.78753 0 0 0 -3.18055e-15 -4.77083e-15 -3.18055e-15 0.71526 -4.44089e-16 0 -3.18055e-15 3.18055e-15 6.36111e-15 0 0 0 -3.18055e-15 -4.77083e-15 -3.18055e-15 0 0 0 -1.98785e-16 3.18055e-15 -0 -3.13661 1.37406 -0.404651 -3.62546 -7.74599 29.0019 -5.2419 -0.000405621 0.000229627 -1.75338 -0.484475 11.5189 -3.44417 4.84333e-06 -9.4782e-06 -12.3149 -12.9352 0.521524 0 0 0 -3.97569e-16 1.98785e-16 9.54166e-15 -0.62253 -8.88178e-16 0 9.93923e-16 -7.95139e-16 6.36111e-15 0 0 0 -3.97569e-16 1.98785e-16 9.54166e-15 
0.188476 2.06362 -0.137288 -5.11062 -1.77005 -8.73735 0 0 0 -4.47266e-16 0 -0 1.36306 -1.79463 9.54359e-08 -2.84088 -54.4257 11.7532 2.44798 -6.72617 2.86942e-05 -54.3928 74.0178 73.0728 2.56218 -7.0396 3.68637e-05 -6.22615 32.5109 4.04793 0.15764 -0.43311 2.32255 -3.18055e-15 -6.36111e-15 -0 0 0 0 -4.47266e-16 0 -0 -1.30552 -1.79463 5.67482e-08 33.2588 -54.6886 19.0971 -2.54255 -6.98554 1.22482e-06 135.891 54.8587 -161.241 -2.5682 -7.05625 4.20108e-06 10.4212 19.2407 -9.34954 -0.16473 -0.45259 2.36315 3.18055e-15 -7.95139e-16 1.59028e-15 0 0 0 -4.47266e-16 0 -0 0.0282698 2.03559 7.33983e-08 -0.74238 30.3771 11.2465 0.05672 2.04885 -0.04275 -9.93923e-17 3.18055e-15 -0 0 0 0 -9.93923e-17 0 -0 -0.05417 1.74625 0.17202 0.334773 14.9017 5.73413 0.10407 1.76136 -0.12397 -1.59028e-15 3.18055e-15 7.95139e-16 0 0 0 -9.93923e-17 0 -0 3.36242 1.2009 -0.311211 1.23896 -3.72246 -27.2256 4.98299 -0.000186552 0.000150213 8.30832 -4.31374 -22.9786 3.48356 -5.5688e-05 -2.19011e-05 6.70094 23.4476 -6.66105 0 0 0 3.18055e-15 4.77083e-15 -0 0.71526 -4.44089e-16 1.77636e-15 -3.18055e-15 0 6.36111e-15 0 0 0 3.18055e-15 4.77083e-15 -0 0 0 0 -9.93923e-17 0 -0 -3.13661 1.37406 -0.404651 -3.46208 -7.50662 29.1068 -5.2419 -0.000405621 0.000229627 -1.75178 -0.489016 11.327 -3.44417 4.84333e-06 -9.4782e-06 -12.0581 -13.293 0.506905 0 0 0 -7.95139e-16 7.95139e-16 6.36111e-15 -0.62253 8.88178e-16 -8.88178e-16 6.62086e-32 -5.96354e-16 6.36111e-15 0 0 0 -7.95139e-16 7.95139e-16 6.36111e-15 
0.188285 2.05825 -0.13737 -5.09732 -1.7718 -8.77564 0 0 0 4.96962e-17 0 -0 1.36306 -1.79463 9.54359e-08 -2.84445 -54.4261 11.7535 2.44798 -6.72617 2.86942e-05 -54.387 74.0172 73.0652 2.56218 -7.0396 3.68637e-05 -6.26734 32.4896 4.07804 0.15764 -0.43311 2.32255 3.18055e-15 -3.18055e-15 -1.59028e-15 0 0 0 4.96962e-17 0 -0 -1.30552 -1.79463 5.67482e-08 33.1928 -54.6147 19.0042 -2.54255 -6.98554 1.22482e-06 135.872 54.8996 -161.184 -2.5682 -7.05625 4.20108e-06 10.3749 19.1826 -9.30895 -0.16473 -0.45259 2.36315 -9.54166e-15 1.19271e-15 -0 0 0 0 4.96962e-17 0 -0 0.0282698 2.03559 7.33983e-08 -0.745381 30.3892 11.2385 0.05672 2.04885 -0.04275 -1.98785e-16 -3.18055e-15 -0 0 0 0 -1.10348e-32 -3.18055e-15 -1.98785e-16 -0.05417 1.74625 0.17202 0.324561 14.9069 5.73514 0.10407 1.76136 -0.12397 7.95139e-16 3.18055e-15 7.95139e-16 0 0 0 -1.10348e-32 -3.18055e-15 -1.98785e-16 3.36242 1.2009 -0.311211 0.923386 -3.58993 -27.0394 4.98299 -0.000186552 0.000150213 8.31809 -4.30607 -22.9021 3.48356 -5.5688e-05 -2.19011e-05 6.64172 23.4326 -6.53233 0 0 0 0 3.18055e-15 -0 0.71526 8.88178e-16 0 0 3.18055e-15 -0 0 0 0 0 3.18055e-15 -0 0 0 0 -1.10348e-32 -3.18055e-15 -1.98785e-16 -3.13661 1.37406 -0.404651 -3.30123 -7.26836 29.206 -5.2419 -0.000405621 0.000229627 -1.75023 -0.493535 11.1374 -3.44417 4.84333e-06 -9.4782e-06 -11.8014 -13.6415 0.493621 0 0 0 1.98785e-16 -7.95139e-16 3.18055e-15 -0.62253 0 -8.88178e-16 1.19271e-15 1.98785e-16 3.18055e-15 0 0 0 1.98785e-16 -7.95139e-16 3.18055e-15 
0.188073 2.05245 -0.137448 -5.08383 -1.77346 -8.81352 0 0 0 -1.2921e-15 0 1.59028e-15 1.36306 -1.79463 9.54359e-08 -2.84844 -54.4261 11.7536 2.44798 -6.72617 2.86942e-05 -54.3822 74.0165 73.0565 2.56218 -7.0396 3.68637e-05 -6.30901 32.4672 4.10977 0.15764 -0.43311 2.32255 -3.18055e-15 -3.18055e-15 -1.59028e-15 0 0 0 -1.2921e-15 0 1.59028e-15 -1.30552 -1.79463 5.67482e-08 33.126 -54.5399 18.9105 -2.54255 -6.98554 1.22482e-06 135.854 54.9408 -161.127 -2.5682 -7.05625 4.20108e-06 10.3288 19.1241 -9.26825 -0.16473 -0.45259 2.36315 -5.51738e-33 7.95139e-16 3.97569e-16 0 0 0 -1.2921e-15 0 1.59028e-15 0.0282698 2.03559 7.33983e-08 -0.748084 30.4007 11.2304 0.05672 2.04885 -0.04275 0 0 -0 0 0 0 9.93923e-17 0 -1.98785e-16 -0.05417 1.74625 0.17202 0.314602 14.9114 5.73597 0.10407 1.76136 -0.12397 -0 -1.27222e-14 -0 0 0 0 9.93923e-17 0 -1.98785e-16 3.36242 1.2009 -0.311211 0.610639 -3.46063 -26.8479 4.98299 -0.000186552 0.000150213 8.32767 -4.29843 -22.8259 3.48356 -5.5688e-05 -2.19011e-05 6.57942 23.4105 -6.40095 0 0 0 0 0 -6.36111e-15 0.71526 4.44089e-16 0 -5.29669e-31 -4.77083e-15 -6.36111e-15 0 0 0 0 0 -6.36111e-15 0 0 0 9.93923e-17 0 -1.98785e-16 -3.13661 1.37406 -0.404651 -3.14287 -7.03095 29.2997 -5.2419 -0.000405621 0.000229627 -1.74873 -0.498039 10.9502 -3.44417 4.84333e-06 -9.4782e-06 -11.5448 -13.9792 0.482029 0 0 0 -1.98785e-16 5.96354e-16 6.36111e-15 -0.62253 -8.88178e-16 0 1.98785e-16 3.97569e-16 9.54166e-15 0 0 0 -1.98785e-16 5.96354e-16 6.36111e-15 
